<?xml version="1.0" encoding="UTF-8" standalone="no"?>
<!-- Created with Inkscape (http://www.inkscape.org/) -->

<svg
   xmlns:dc="http://purl.org/dc/elements/1.1/"
   xmlns:cc="http://creativecommons.org/ns#"
   xmlns:rdf="http://www.w3.org/1999/02/22-rdf-syntax-ns#"
   xmlns:svg="http://www.w3.org/2000/svg"
   xmlns="http://www.w3.org/2000/svg"
   xmlns:xlink="http://www.w3.org/1999/xlink"
   xmlns:sodipodi="http://sodipodi.sourceforge.net/DTD/sodipodi-0.dtd"
   xmlns:inkscape="http://www.inkscape.org/namespaces/inkscape"
   width="500"
   height="300"
   id="svg3048"
   version="1.1"
   inkscape:version="0.48.4 r9939"
   sodipodi:docname="splash.svg"
   inkscape:export-filename="/home/martino/git/OpenView/OpenView/src/ui/splash/splash.png"
   inkscape:export-xdpi="90"
   inkscape:export-ydpi="90">
  <defs
     id="defs3050">
    <linearGradient
       inkscape:collect="always"
       id="linearGradient3950">
      <stop
         style="stop-color:#d7eef4;stop-opacity:1;"
         offset="0"
         id="stop3952" />
      <stop
         style="stop-color:#d7eef4;stop-opacity:0;"
         offset="1"
         id="stop3954" />
    </linearGradient>
    <linearGradient
       gradientTransform="translate(-57.594162,-101.66059)"
       inkscape:collect="always"
       xlink:href="#linearGradient3765"
       id="linearGradient3882"
       x1="52.022858"
       y1="868.00934"
       x2="187.14413"
       y2="1030.2213"
       gradientUnits="userSpaceOnUse" />
    <linearGradient
       inkscape:collect="always"
       id="linearGradient3765">
      <stop
         style="stop-color:#ffffff;stop-opacity:0.38914028"
         offset="0"
         id="stop3767" />
      <stop
         style="stop-color:#5fbcd3;stop-opacity:0;"
         offset="1"
         id="stop3769" />
    </linearGradient>
    <linearGradient
       inkscape:collect="always"
       xlink:href="#linearGradient3765"
       id="linearGradient3070"
       x1="52.022858"
       y1="868.00934"
       x2="187.14413"
       y2="1030.2213"
       gradientUnits="userSpaceOnUse" />
    <radialGradient
       inkscape:collect="always"
       xlink:href="#linearGradient3860"
       id="radialGradient3900"
       cx="35.362118"
       cy="50.893551"
       fx="35.362118"
       fy="50.893551"
       r="24.496199"
       gradientUnits="userSpaceOnUse"
       gradientTransform="matrix(-0.99446921,8.9708483,-10.287929,-1.0075397,594.11783,-215.05736)" />
    <linearGradient
       inkscape:collect="always"
       id="linearGradient3860">
      <stop
         style="stop-color:#004455;stop-opacity:1;"
         offset="0"
         id="stop3862" />
      <stop
         style="stop-color:#004455;stop-opacity:0;"
         offset="1"
         id="stop3864" />
    </linearGradient>
    <radialGradient
       inkscape:collect="always"
       xlink:href="#linearGradient3860"
       id="radialGradient3868"
       cx="13.242426"
       cy="819.77673"
       fx="13.242426"
       fy="819.77673"
       r="95.508072"
       gradientTransform="matrix(-0.28911632,2.771376,-2.9682766,-0.30965745,2407.3294,945.94541)"
       gradientUnits="userSpaceOnUse" />
    <linearGradient
       inkscape:collect="always"
       xlink:href="#linearGradient3765"
       id="linearGradient3771"
       x1="58.075203"
       y1="71.618675"
       x2="217.39095"
       y2="205.19969"
       gradientUnits="userSpaceOnUse" />
    <linearGradient
       inkscape:collect="always"
       xlink:href="#linearGradient3950"
       id="linearGradient3956"
       x1="-46.467018"
       y1="676.08801"
       x2="555.55841"
       y2="1055.9054"
       gradientUnits="userSpaceOnUse" />
  </defs>
  <sodipodi:namedview
     id="base"
     pagecolor="#ffffff"
     bordercolor="#666666"
     borderopacity="1.0"
     inkscape:pageopacity="1"
     inkscape:pageshadow="2"
     inkscape:zoom="1.4"
     inkscape:cx="357.195"
     inkscape:cy="239.6596"
     inkscape:document-units="px"
     inkscape:current-layer="layer1"
     showgrid="false"
     inkscape:window-width="1920"
     inkscape:window-height="1175"
     inkscape:window-x="1600"
     inkscape:window-y="20"
     inkscape:window-maximized="1" />
  <metadata
     id="metadata3053">
    <rdf:RDF>
      <cc:Work
         rdf:about="">
        <dc:format>image/svg+xml</dc:format>
        <dc:type
           rdf:resource="http://purl.org/dc/dcmitype/StillImage" />
        <dc:title></dc:title>
      </cc:Work>
    </rdf:RDF>
  </metadata>
  <g
     inkscape:label="Layer 1"
     inkscape:groupmode="layer"
     id="layer1"
     transform="translate(0,-752.36218)">
    <rect
       style="fill:url(#linearGradient3956);fill-opacity:1;stroke:none"
       id="rect3180"
       width="500"
       height="300"
       x="0"
       y="752.36218" />
    <path
       transform="matrix(1.0309598,0,0,1.0309598,-64.031371,698.00389)"
       d="m 247.14286,126.35714 c 0,63.70999 -51.64715,115.35714 -115.35714,115.35714 -63.709988,0 -115.357139,-51.64715 -115.357139,-115.35714 C 16.428581,62.647151 68.075732,11 131.78572,11 c 63.70999,0 115.35714,51.647151 115.35714,115.35714 z"
       sodipodi:ry="115.35714"
       sodipodi:rx="115.35714"
       sodipodi:cy="126.35714"
       sodipodi:cx="131.78572"
       id="path3759"
       style="fill:#2c89a0;fill-opacity:1;stroke:none"
       sodipodi:type="arc" />
    <path
       sodipodi:type="arc"
       style="fill:#5fbcd3;fill-opacity:1;stroke:none"
       id="path2985"
       sodipodi:cx="131.78572"
       sodipodi:cy="126.35714"
       sodipodi:rx="115.35714"
       sodipodi:ry="115.35714"
       d="m 247.14286,126.35714 c 0,63.70999 -51.64715,115.35714 -115.35714,115.35714 -63.709988,0 -115.357139,-51.64715 -115.357139,-115.35714 C 16.428581,62.647151 68.075732,11 131.78572,11 c 63.70999,0 115.35714,51.647151 115.35714,115.35714 z"
       transform="matrix(1.0185759,0,0,1.0185759,-64.055078,693.77009)" />
    <path
       transform="matrix(1.0185759,0,0,1.0185759,-64.055078,693.77009)"
       d="m 247.14286,126.35714 c 0,63.70999 -51.64715,115.35714 -115.35714,115.35714 -63.709988,0 -115.357139,-51.64715 -115.357139,-115.35714 C 16.428581,62.647151 68.075732,11 131.78572,11 c 63.70999,0 115.35714,51.647151 115.35714,115.35714 z"
       sodipodi:ry="115.35714"
       sodipodi:rx="115.35714"
       sodipodi:cy="126.35714"
       sodipodi:cx="131.78572"
       id="path3763"
       style="fill:url(#linearGradient3771);fill-opacity:1;stroke:none"
       sodipodi:type="arc" />
    <path
       sodipodi:nodetypes="cccccccccccc"
       inkscape:connector-curvature="0"
       id="path3784"
       d="m 146.62458,782.57659 -34.53125,61.625 16.28125,-45.625 -36.531241,-15.75 14.406241,74.8125 -18.843741,-49.53125 -34.28125,-21.4375 c 10.56826,37.06624 3.87574,97.18274 -56.3130229,52.3561 l 42.5630219,96.76887 c 38.874171,13.9308 91.873262,-2.8248 119.187492,-35.4375 24.74329,-26.04603 35.59116,-73.73805 25.53125,-106.12497 z"
       style="font-size:102.46938324px;font-style:normal;font-variant:normal;font-weight:600;font-stretch:normal;text-align:start;line-height:125%;letter-spacing:0px;word-spacing:0px;writing-mode:lr-tb;text-anchor:start;opacity:0.25;fill:url(#radialGradient3868);fill-opacity:1;stroke:none;font-family:URW Gothic L;-inkscape-font-specification:URW Gothic L Semi-Bold" />
    <path
       transform="matrix(0.87846805,0,0,0.87846805,-45.590864,711.47372)"
       d="m 247.14286,126.35714 c 0,63.70999 -51.64715,115.35714 -115.35714,115.35714 -63.709988,0 -115.357139,-51.64715 -115.357139,-115.35714 C 16.428581,62.647151 68.075732,11 131.78572,11 c 63.70999,0 115.35714,51.647151 115.35714,115.35714 z"
       sodipodi:ry="115.35714"
       sodipodi:rx="115.35714"
       sodipodi:cy="126.35714"
       sodipodi:cx="131.78572"
       id="path3761"
       style="fill:none;stroke:#000000;stroke-width:11.38345337;stroke-miterlimit:4;stroke-opacity:0.18181817;stroke-dasharray:none"
       sodipodi:type="arc" />
    <path
       sodipodi:type="arc"
       style="opacity:0.25;fill:url(#radialGradient3900);fill-opacity:1;stroke:none"
       id="path3832"
       sodipodi:cx="90.661194"
       sodipodi:cy="126.95301"
       sodipodi:rx="24.496199"
       sodipodi:ry="24.496199"
       d="m 115.15739,126.95301 c 0,13.52888 -10.96732,24.4962 -24.496196,24.4962 -13.528877,0 -24.496199,-10.96732 -24.496199,-24.4962 0,-13.52888 10.967322,-24.4962 24.496199,-24.4962 13.528876,0 24.496196,10.96732 24.496196,24.4962 z"
       transform="matrix(1.128866,0,0,1.2010309,-69.656111,667.79115)" />
    <g
       transform="translate(-57.594162,-101.66059)"
       style="font-size:102.46938324px;font-style:normal;font-variant:normal;font-weight:600;font-stretch:normal;text-align:start;line-height:125%;letter-spacing:0px;word-spacing:0px;writing-mode:lr-tb;text-anchor:start;fill:#2c89a0;fill-opacity:1;stroke:none;font-family:URW Gothic L;-inkscape-font-specification:URW Gothic L Semi-Bold"
       id="text3837">
      <path
         inkscape:connector-curvature="0"
         d="m 90.686929,884.94046 c -22.543242,0 -39.96306,17.11241 -39.96306,39.24577 0,21.82596 17.624757,39.14331 39.86059,39.14331 22.030891,0 39.040831,-17.11241 39.040831,-39.24578 0,-21.62101 -17.31734,-39.1433 -38.938361,-39.1433 m -0.204939,13.52596 c 14.03829,0 25.00253,11.27165 25.00253,25.82228 0,14.55064 -10.65683,25.51488 -25.00253,25.51488 -14.345699,0 -25.617346,-11.27165 -25.617346,-25.61735 0,-14.6531 11.066708,-25.71981 25.617346,-25.71981"
         id="path3842" />
      <path
         d="m 164.039,961.99744 11.47657,0 29.30624,-75.72488 0.0212,-1.96429 -35.1682,59.55209 -35.10175,-59.5134 -0.0452,1.9256 29.51118,75.72488"
         id="path3844"
         inkscape:connector-curvature="0"
         sodipodi:nodetypes="cccccccc" />
    </g>
    <text
       xml:space="preserve"
       style="font-size:102.46938324px;font-style:normal;font-variant:normal;font-weight:600;font-stretch:normal;text-align:start;line-height:125%;letter-spacing:0px;word-spacing:0px;writing-mode:lr-tb;text-anchor:start;fill:#aaeeff;fill-opacity:1;stroke:none;font-family:URW Gothic L;-inkscape-font-specification:URW Gothic L Semi-Bold"
       x="-9.9443741"
       y="858.33685"
       id="text3773"
       sodipodi:linespacing="125%"><tspan
         sodipodi:role="line"
         id="tspan3775"
         x="-9.9443741"
         y="858.33685">OV</tspan></text>
    <text
       sodipodi:linespacing="125%"
       id="text3870"
       y="858.33685"
       x="-9.9443741"
       style="font-size:102.46938324px;font-style:normal;font-variant:normal;font-weight:600;font-stretch:normal;text-align:start;line-height:125%;letter-spacing:0px;word-spacing:0px;writing-mode:lr-tb;text-anchor:start;fill:url(#linearGradient3882);fill-opacity:1;stroke:none;font-family:URW Gothic L;-inkscape-font-specification:URW Gothic L Semi-Bold"
       xml:space="preserve"><tspan
         y="858.33685"
         x="-9.9443741"
         id="tspan3872"
         sodipodi:role="line"
         style="fill:url(#linearGradient3882);fill-opacity:1">OV</tspan></text>
    <text
       xml:space="preserve"
       style="font-size:54.21446608999999484px;font-style:normal;font-variant:normal;font-weight:600;font-stretch:normal;line-height:125%;letter-spacing:0px;word-spacing:0px;fill:#004455;fill-opacity:1;stroke:none;font-family:URW Gothic L;-inkscape-font-specification:URW Gothic L Semi-Bold"
       x="206.00212"
       y="843.76575"
       id="text3958"
       sodipodi:linespacing="125%"><tspan
         sodipodi:role="line"
         id="tspan3960"
         x="206.00212"
         y="843.76575">OpenView</tspan></text>
  </g>
</svg>
